<svg version="1.1" xmlns="http://www.w3.org/2000/svg" xmlns:xlink="http://www.w3.org/1999/xlink" width="800px" height="800px" viewBox="0,0,256,256"><g transform=""><g fill="#000000" fill-rule="nonzero" stroke="#000000" stroke-width="100" stroke-linecap="butt" stroke-linejoin="round" stroke-miterlimit="10" stroke-dasharray="" stroke-dashoffset="0" font-family="none" font-weight="none" font-size="none" text-anchor="none" style="mix-blend-mode: normal"><path transform="scale(10.66667,10.66667)" d="M22,12c0,5.51 -4.49,10 -10,10c-5.51,0 -10,-4.49 -10,-10c0,-5.51 4.49,-10 10,-10c5.51,0 10,4.49 10,10z" id="strokeMainSVG"></path></g><g fill="#ffffff" fill-rule="nonzero" stroke="none" stroke-width="1" stroke-linecap="butt" stroke-linejoin="miter" stroke-miterlimit="10" stroke-dasharray="" stroke-dashoffset="0" font-family="none" font-weight="none" font-size="none" text-anchor="none" style="mix-blend-mode: normal"><g transform="scale(10.66667,10.66667)"><path d="M12,2c-5.51,0 -10,4.49 -10,10c0,5.51 4.49,10 10,10c5.51,0 10,-4.49 10,-10c0,-5.51 -4.49,-10 -10,-10zM13.79,15c0.29,0.29 0.29,0.77 0,1.06c-0.15,0.15 -0.34,0.22 -0.53,0.22c-0.19,0 -0.38,-0.07 -0.53,-0.22l-3.53,-3.53c-0.29,-0.29 -0.29,-0.77 0,-1.06l3.53,-3.53c0.29,-0.29 0.77,-0.29 1.06,0c0.29,0.29 0.29,0.77 0,1.06l-3,3z"></path></g></g></g></svg>